<?xml version="1.0" encoding="UTF-8" standalone="no"?>
<!--
Copyright (c) 2017 Amine Anane. http://digitalkhatt/license
This file is part of DigitalKhatt.
DigitalKhatt is free software: you can redistribute it and/or modify
it under the terms of the GNU Affero General Public License as published by
the Free Software Foundation, either version 3 of the License, or
(at your option) any later version.
-->
<svg xmlns="http://www.w3.org/2000/svg" preserveAspectRatio="none" width="243" height="26.55" viewBox="0 0 84.739407 10.665164">
  <defs>
    <linearGradient id="frameGradient1">
      <stop style="stop-color:#ffffff;stop-opacity:1" offset="0"/>
      <stop style="stop-color:#126183;stop-opacity:1" offset="1"/>
    </linearGradient>
    <linearGradient id="frameGradient2">
      <stop style="stop-color:#126183;stop-opacity:1" offset="0"/>
      <stop style="stop-color:#ffffff;stop-opacity:1" offset="1"/>
    </linearGradient>
    <linearGradient id="frameGradient3">
      <stop style="stop-color:#ffffff;stop-opacity:1" offset="0"/>
      <stop style="stop-color:#43b4e5;stop-opacity:1" offset="0.32"/>
      <stop style="stop-color:#f9fcfe;stop-opacity:1" offset="0.57"/>
      <stop style="stop-color:#43b4e5;stop-opacity:1" offset="1"/>
    </linearGradient>
  </defs>
  <!-- Main frame outer border -->
  <path style="fill:#1c7897;fill-opacity:1;stroke:#000000;stroke-width:0.1" 
        d="M 93.711268,120.73421 H 60.648044 c -0.103645,0.20497 -0.167239,0.3402 -0.277805,0.50177 0.06619,0.14478 0.516836,0.5561 0.650626,0.65423 -0.09939,0.0913 -0.160361,0.12311 -0.215329,0.17622 -0.07841,0.0757 -0.173164,0.20904 -0.291746,0.3638 -0.259306,-0.25491 -0.573591,-0.63247 -0.666636,-0.79375 -0.09335,-0.15461 -0.345873,-0.58588 -0.483838,-0.90227 h -9.22856 v 9.08939 h 9.276066 c 0.06776,-0.14306 0.149545,-0.40011 0.228236,-0.54258 -0.206628,-0.19211 -0.438725,-0.38831 -0.697616,-0.57362 0.08363,-0.0786 0.171116,-0.16181 0.223588,-0.21187 0.08707,-0.083 0.19377,-0.22263 0.325832,-0.38241 0.259815,0.25492 0.576358,0.63501 0.66973,0.79686 0.08447,0.13988 0.294989,0.60887 0.437881,0.91362 l 32.995954,-0.001"
        transform="translate(-49.308434,-119.94227)"/>
  <!-- White fill background -->
  <path style="fill:#ffffff;fill-opacity:1;stroke:#000000;stroke-width:0.1"
        d="m 324.11164,490.44054 -15.21542,-0.0206 -0.21056,-0.40711 c -0.62313,-1.20481 -2.6958,-2.4729 -4.87129,-2.98034 -0.93538,-0.21818 -2.32296,-0.26895 -3.22569,-0.11804 -0.70172,0.11732 -1.60324,0.39365 -2.09387,0.64182 -0.16494,0.0834 -0.30017,0.14411 -0.30052,0.13485 -0.0167,-0.44952 -0.25881,-3.22837 -0.28491,-3.2706 -0.0664,-0.10746 -0.19001,-0.0679 -0.98552,0.31549 -1.50044,0.72313 -2.76174,1.06195 -4.15851,1.11711 -2.42609,0.0958 -4.91178,-0.71693 -7.05663,-2.30725 -0.26837,-0.19899 -1.19821,-0.98143 -2.06631,-1.73876 -2.72167,-2.37437 -4.22639,-3.61376 -6.06966,-4.99936 -1.30425,-0.98042 -1.96058,-1.39186 -3.8665,-2.42382 -0.80112,-0.43377 -1.45662,-0.80287 -1.45667,-0.82023 -5e-5,-0.0174 0.52371,-0.31196 1.16392,-0.65467 2.44528,-1.30896 3.37439,-1.92298 5.68322,-3.75589 1.35704,-1.07731 2.17271,-1.7621 4.26158,-3.57775 2.01431,-1.75085 2.25553,-1.94755 2.9457,-2.40207 2.49399,-1.64241 5.47133,-2.2747 8.00713,-1.70043 0.92409,0.20927 1.72294,0.4934 2.69813,0.95963 0.63259,0.30245 0.75459,0.34161 0.84092,0.26996 0.0555,-0.0461 0.0877,-0.13449 0.0715,-0.19645 -0.0306,-0.11687 0.1875,-3.14607 0.22951,-3.18807 0.0131,-0.0131 0.21196,0.0615 0.44197,0.16583 2.1125,0.95786 4.72911,0.79808 7.27538,-0.44424 1.18741,-0.57935 2.47644,-1.56533 2.9615,-2.26527 l 0.17804,-0.2569 h 37.51053 37.51054 l 0.12205,0.22663 c 0.17507,0.32509 1.01728,1.09477 1.69112,1.5455 2.51938,1.68518 5.41375,2.23202 7.81199,1.47592 0.29516,-0.0931 0.67442,-0.23881 0.84281,-0.3239 0.16839,-0.0851 0.32262,-0.13827 0.34273,-0.11817 0.0447,0.0447 0.27109,2.8987 0.25005,3.15214 -0.0276,0.33168 0.13334,0.34402 0.69248,0.0531 1.10562,-0.57521 2.61649,-1.0619 3.78077,-1.21788 1.61698,-0.21662 3.81237,0.17946 5.6177,1.01352 1.24911,0.5771 2.02846,1.13468 4.07059,2.91233 3.62611,3.15647 6.01658,5.07872 7.56698,6.08482 0.60351,0.39164 2.11954,1.25475 3.33661,1.89961 0.3212,0.17018 0.584,0.32471 0.584,0.3434 0,0.0187 -0.54691,0.32949 -1.21534,0.69068 -1.92012,1.03755 -2.81061,1.59032 -4.02335,2.4975 -1.87538,1.40286 -3.29839,2.57567 -6.31493,5.20461 -1.66645,1.45232 -2.67252,2.19066 -3.65362,2.68134 -1.77122,0.88583 -3.50512,1.28508 -5.27992,1.21573 -1.41094,-0.0551 -2.65844,-0.38929 -4.20642,-1.12675 -0.70687,-0.33675 -0.83012,-0.37748 -0.9073,-0.29984 -0.0646,0.065 -0.11685,0.47386 -0.1889,1.4788 -0.0548,0.76393 -0.11411,1.48114 -0.13185,1.59379 l -0.0323,0.20484 -0.3137,-0.15896 c -2.40286,-1.21762 -5.93812,-0.86087 -8.55112,0.8629 -0.67424,0.4448 -1.41106,1.18694 -1.6367,1.64853 l -0.17745,0.36302 h -21.63782 c -11.90081,0 -21.97611,0.009 -22.38957,0.0203 -0.41346,0.0112 -7.59868,0.011 -15.96717,-3.1e-4 z"
        transform="scale(0.26458333)"/>
</svg>
